<?xml version="1.0" standalone="no"?>
<!DOCTYPE svg PUBLIC "-//W3C//DTD SVG 1.1//EN" "http://www.w3.org/Graphics/SVG/1.1/DTD/svg11.dtd" >
<svg xmlns="http://www.w3.org/2000/svg">
<metadata></metadata>
<defs>
<font id="logo_calligraphic_2medium" horiz-adv-x="307" >
<font-face units-per-em="2048" ascent="1638" descent="-410" />
<missing-glyph horiz-adv-x="573" />
<glyph horiz-adv-x="2048" />
<glyph horiz-adv-x="2048" />
<glyph unicode="&#xd;" horiz-adv-x="2048" />
<glyph unicode=" "  horiz-adv-x="573" />
<glyph unicode="&#x09;" horiz-adv-x="573" />
<glyph unicode="&#xa0;" horiz-adv-x="573" />
<glyph unicode="!" d="M74 4l153 55l21 -57l-154 -55zM74 520v1125l153 55l21 -58v-1124l-154 -55z" />
<glyph unicode="&#x22;" horiz-adv-x="491" d="M74 1040v191l153 55l21 -57v-191l-154 -55zM258 1040v191l154 55l20 -57v-191l-153 -55z" />
<glyph unicode="#" horiz-adv-x="901" d="M-8 332l153 55h45l60 266h-152l-20 58l153 55h43l103 461l153 55l19 -57l-100 -459h122l103 461l153 55l21 -57l-100 -459h153l21 -57l-154 -56h-45l-59 -266h151l21 -57l-154 -56h-45l-59 -272l-154 -55l-21 57l60 270h-123l-59 -272l-154 -55l-21 57l60 270h-154z M365 385h122l60 266h-123z" />
<glyph unicode="$" horiz-adv-x="995" d="M63 776v189l95 163l166 97l104 39v151l154 55l20 -57v-133h64l163 -96l97 -164l20 -57l-151 -56l-97 164l-163 96h-84h-48l-69 -41l-94 -163v-166l59 -101l27 15l153 55h189l163 -94l95 -166l20 -57v-189l-94 -164l-164 -94l-82 -31v-157l-153 -56l-21 58v131h-86 l-166 94l-94 164l-20 57l153 55l94 -163l166 -95h131l66 39l94 164v168l-72 125h-2l-2 6l-162 92h-133l-67 -39l-154 -55l-94 160z" />
<glyph unicode="%" horiz-adv-x="1093" d="M74 0l786 1229l154 55l20 -57l-786 -1229l-154 -55z" />
<glyph unicode="&#x26;" horiz-adv-x="1003" d="M61 229v164l84 144l103 59l-82 47l-84 141l-21 58v166l84 141l142 82l153 55h199l20 -57l-153 -55h-141l-46 -27l-83 -141v-144l63 -106l141 -82h131v256l154 55l20 -57v-254h259l20 -58l-154 -55h-125v-559l-153 -55h-285l-141 82l-84 143zM236 250l63 -107l141 -82h131 v500h-206l-46 -26l-83 -144v-141z" />
<glyph unicode="'" d="M74 1018v190l110 92l154 56l39 -47l20 -58v-190l-110 -92l-154 -56l-39 48z" />
<glyph unicode="(" horiz-adv-x="559" d="M76 -260v1493l94 166l166 94l153 55l21 -57l-166 -94l-94 -166v-1473l74 -127l165 -96l21 -57l-154 -56l-166 97l-94 164z" />
<glyph unicode=")" horiz-adv-x="555" d="M63 -526l164 96l95 164v1476l-74 129l-164 95l-21 57l154 55l164 -94l94 -166l21 -57v-1497l-95 -164l-163 -96l-154 -56z" />
<glyph unicode="*" horiz-adv-x="614" d="M61 1063l154 55l10 -6v43l154 55l20 -57v-88l144 51l20 -57l-153 -90l63 -113l21 -57l-154 -56l-35 60l-2 -4l-153 -56l-21 62l76 131l-123 70z" />
<glyph unicode="+" horiz-adv-x="897" d="M63 369l154 55h150v287l153 55l21 -57v-285h286l21 -57l-154 -56h-153v-311l-154 -55l-20 57v309h-283z" />
<glyph unicode="," horiz-adv-x="382" d="M63 -162l97 164l153 55l21 -57l-96 -164l-154 -55z" />
<glyph unicode="-" horiz-adv-x="681" d="M63 326l154 55h395l21 -57l-154 -56h-395z" />
<glyph unicode="." horiz-adv-x="286" d="M66 2l153 55l21 -57l-154 -55z" />
<glyph unicode="/" horiz-adv-x="1073" d="M63 2l787 1229l154 55l20 -57l-786 -1229l-154 -55z" />
<glyph unicode="0" horiz-adv-x="993" d="M63 262v189l95 165l164 95l153 55h189l165 -94l95 -166l20 -57v-189l-94 -164l-166 -94l-154 -55h-188l-164 94l-94 164zM240 281l73 -127l164 -95h133l66 39l94 164v168l-74 129l-166 94h-131l-65 -39l-94 -165v-168z" />
<glyph unicode="1" horiz-adv-x="509" d="M-8 545l284 164l154 55l21 -57v-709l-154 -55l-21 57v606l-110 -63l-154 -56z" />
<glyph unicode="2" horiz-adv-x="993" d="M59 4l699 440l-66 113l-164 94h-133l-67 -39l-95 -166l-153 -55l-21 58l95 165l165 95l154 55h189l163 -94l95 -166l20 -58l-614 -389h594l20 -57l-154 -53h-706z" />
<glyph unicode="3" horiz-adv-x="880" d="M-8 709l153 55h547l21 -57l-293 -471h131l166 -95l94 -161l20 -58v-190l-94 -164l-166 -94l-153 -56h-189l-163 95l-21 57l154 57l163 -94h134l67 39l94 164v168l-73 125l-166 94h-189l-20 57l293 471h-490z" />
<glyph unicode="4" horiz-adv-x="849" d="M-8 -135l532 842v2l154 55l20 -57v-2v-785h154l20 -57l-153 -56h-21v-331l-153 -56l-21 58v329h-512zM203 -80h321v508z" />
<glyph unicode="5" horiz-adv-x="911" d="M74 88v619l153 55h547l21 -57l-154 -56h-393v-463l145 54h189l163 -95l97 -163l20 -58v-188l-96 -164l-164 -96l-153 -56h-189l-166 97l-20 57l155 53l166 -96h129l68 41l96 164v166l-76 129l-163 94h-134l-67 -39l-154 -55z" />
<glyph unicode="6" horiz-adv-x="993" d="M66 260v189l100 157v2l2 2l395 619l154 55l20 -57l-305 -479l45 16h189l165 -94l95 -166l20 -58v-188l-94 -164l-166 -94l-154 -55h-188l-164 94l-94 164zM238 279l73 -127l164 -95h133l68 39l94 164v168l-74 129l-166 94h-122l-68 -43h2l-2 -2l-102 -160v-167z" />
<glyph unicode="7" horiz-adv-x="1001" d="M63 -520l750 1169h-729l-21 58l154 55h787l20 -57l-786 -1227l-154 -56z" />
<glyph unicode="8" horiz-adv-x="995" d="M63 -74l89 156l-66 121l-20 57v189l94 165l164 95l153 55h189l165 -94l95 -166l20 -58v-188l-90 -160l68 -116l20 -58v-188l-94 -164l-164 -96l-154 -56h-190l-164 97l-94 164l-21 57v188zM238 -76v-168l73 -127l164 -96h131l70 41l94 164v168l-74 127h-397zM240 276 l71 -131h394l65 115v168l-74 129l-166 94h-131l-65 -39l-94 -166v-170z" />
<glyph unicode="9" horiz-adv-x="995" d="M63 260v189l97 165l164 95l153 55h189l163 -94l97 -166l20 -58v-188l-497 -776l-154 -55l-21 57l308 477l-50 -16h-188l-164 94l-96 164zM240 279l75 -129l164 -95h125l68 43l100 162v166l-76 129l-164 94h-131l-65 -39l-96 -166v-165z" />
<glyph unicode=":" d="M74 0l153 55l21 -57l-154 -55zM74 711l153 55l21 -57l-154 -56z" />
<glyph unicode=";" horiz-adv-x="311" d="M-8 -164l96 164l154 55l20 -57l-96 -164l-154 -55zM88 707l154 55l20 -57l-153 -56z" />
<glyph unicode="&#x3c;" horiz-adv-x="624" d="M63 352l338 355l154 55l20 -57l-321 -336l299 -314l20 -57l-151 -55l-338 352z" />
<glyph unicode="=" horiz-adv-x="897" d="M63 141l154 56h610l21 -58l-154 -55h-610zM63 510l154 55h610l21 -57l-154 -55h-610z" />
<glyph unicode="&#x3e;" horiz-adv-x="624" d="M63 0l322 334l-299 315l-20 58l153 55l338 -354l21 -58l-338 -352l-154 -55z" />
<glyph unicode="?" horiz-adv-x="901" d="M63 1135l166 94l154 55h188l164 -94l96 -166l21 -57v-189l-96 -164l-164 -94l-154 -55h-35v-125l-153 -55l-19 59v180l154 56h131l66 38l96 164v166l-76 129l-164 94h-133l-67 -38l-154 -56zM231 0l154 55l21 -57l-154 -55z" />
<glyph unicode="@" horiz-adv-x="1419" d="M59 262v715l103 166l164 94l153 55h600l164 -96l103 -176l20 -57v-598l-106 -164l-154 -56h-193l-20 58v51l-143 -51h-191l-164 94l-94 164l-20 57v189l94 165l164 95l153 55h191l65 -37l99 35l20 -57v-93v-518v-94h53l70 109v575l-82 139l-164 97h-543l-65 -39 l-103 -166v-690l84 -131l164 -95h568l20 -57l-154 -53h-567l-164 94l-104 164zM457 537l73 -127l164 -95h133l66 39v473l-143 82h-134l-65 -39l-94 -165v-168z" />
<glyph unicode="A" horiz-adv-x="1036" d="M-8 0l446 1227l154 55l467 -1284l-154 -55l-174 477h-412l-153 -422l-154 -55zM360 532h328l-164 453z" />
<glyph unicode="B" horiz-adv-x="1071" d="M78 -8v1231l153 55h551l142 -82l82 -143l20 -58v-164l-82 -143l-102 -59l82 -47l82 -142l20 -57v-166l-82 -141l-141 -82l-154 -55h-540l-11 -5zM250 57l473 -2l45 27l82 141v146l-62 104l-141 82h-397v-498zM250 668l473 -2l45 26l82 144v143l-62 106l-141 82h-397v-499 z" />
<glyph unicode="C" horiz-adv-x="1351" d="M63 451v329l164 287l287 164l154 55h329l285 -164l21 -57l-152 -55l-285 164h-274l-189 -109l-163 -287v-309l143 -248l287 -164h272l186 109l154 55l21 -57l-285 -164l-154 -55h-329l-287 164l-164 284z" />
<glyph unicode="D" horiz-adv-x="1075" d="M74 -6v1233l153 55h330l285 -166l164 -285l20 -57v-330l-164 -284l-284 -164l-154 -55h-320l-10 -4zM246 57l254 -2l186 109l164 285v309l-143 248l-285 165h-176v-1114z" />
<glyph unicode="E" horiz-adv-x="1085" d="M74 2v616v613l153 55h789l20 -57l-153 -60h-635v-497h524l21 -58l-154 -55h-391v-502h768l20 -57l-153 -55h-789z" />
<glyph unicode="F" horiz-adv-x="1085" d="M74 0v616v613l153 55h789l20 -57l-153 -56h-635v-497l524 -2l21 -58l-154 -55h-391v-561l-154 -55z" />
<glyph unicode="G" horiz-adv-x="1349" d="M63 453v329l164 285l285 166l154 55h329l285 -166l20 -57l-151 -55l-285 166h-272l-189 -111l-163 -285v-309l143 -248l285 -164h272l186 109v272h-522l-20 58l153 55h543l20 -57v-330l-284 -164l-154 -55h-330l-284 164l-164 284z" />
<glyph unicode="H" horiz-adv-x="1097" d="M74 2v614v617l153 55l21 -57v-559h616v561l154 55l20 -57v-617v-614l-153 -55l-21 57v557h-616v-559l-154 -55z" />
<glyph unicode="I" d="M74 0v1231l153 55l21 -57v-1231l-154 -55z" />
<glyph unicode="J" horiz-adv-x="837" d="M-8 0l155 55h271l186 109v1065l154 55l20 -57v-1065l-284 -164l-154 -55h-328z" />
<glyph unicode="K" horiz-adv-x="1071" d="M74 2v709v520l153 55l23 -57v-481l39 -37l559 518l153 55l21 -57l-645 -598l624 -572l21 -57l-154 -55l-620 567v-512l-154 -55z" />
<glyph unicode="L" horiz-adv-x="1013" d="M74 2v1229l153 55l21 -57v-1172h768l20 -57l-153 -55h-789z" />
<glyph unicode="M" horiz-adv-x="1267" d="M74 0v1225l153 55l420 -653l387 598l154 55l20 -57v-1225l-153 -55l-21 57v952l-307 -475l-154 -55l-325 506v-930l-154 -55z" />
<glyph unicode="N" horiz-adv-x="1093" d="M74 0v1229l153 55l633 -989v930l154 55l20 -57v-1227l-153 -55l-633 989v-932l-154 -55z" />
<glyph unicode="O" horiz-adv-x="1513" d="M63 451v329l164 285l285 164l154 55h329l285 -164l164 -284l20 -58v-329l-164 -285l-284 -164l-154 -55h-330l-284 164l-164 284zM240 469l143 -248l285 -164h272l186 109l164 285v309l-143 248l-285 163h-272l-187 -108l-163 -285v-309z" />
<glyph unicode="P" horiz-adv-x="1071" d="M78 0v1225l153 55h551l142 -82l82 -143l20 -58v-163l-82 -144l-141 -82l-154 -55h-397v-555l-154 -55zM252 670l473 -2l45 26l82 144v143l-61 106l-142 82h-397v-499z" />
<glyph unicode="Q" horiz-adv-x="1513" d="M63 451v329l164 285l285 164l154 55h329l285 -164l164 -284l20 -58v-329l-164 -285l-272 -158l232 -358l20 -58l-154 -55l-264 410h-330l-284 164l-164 284zM240 469l143 -248l285 -164h272l186 109l164 285v309l-143 248l-285 163h-272l-187 -108l-163 -285v-309z" />
<glyph unicode="R" horiz-adv-x="1085" d="M74 0v4v1221l153 55h551l142 -82l81 -143l21 -58v-163l-82 -144l-137 -80l-117 -43l330 -514l20 -57l-153 -55l-394 612v2h-241v-553v-4l-154 -55zM248 670h477l41 24l82 144v143l-62 106l-141 82h-397v-499z" />
<glyph unicode="S" horiz-adv-x="993" d="M63 260l154 55l94 -163l164 -95h133l68 39l94 164v168l-57 100l-27 -16l-154 -55h-190l-164 100l-94 160l-21 57v189l95 163l164 97l153 55h191l163 -96l95 -164l20 -57l-153 -56l-95 164l-164 96h-131l-67 -41l-94 -163v-166l59 -101l23 15l153 55h189l165 -94l95 -166 l20 -58v-188l-94 -164l-166 -94l-154 -55h-188l-164 94l-94 164zM373 635l104 -64h131l33 19l-109 61h-131z" />
<glyph unicode="T" horiz-adv-x="1075" d="M63 1233l154 55h393h396l20 -57l-154 -55h-241v-1178l-154 -55l-20 57v1176h-373z" />
<glyph unicode="U" horiz-adv-x="1193" d="M74 168v1059l153 55l21 -57v-1014l252 -154h272l189 111l-3 1055l154 55l21 -57l2 -1055l-285 -166l-154 -55h-329l-273 166z" />
<glyph unicode="V" horiz-adv-x="935" d="M-10 1227l153 55l21 -57l305 -953l311 955l154 55l22 -57l-399 -1223l-154 -55l-20 57z" />
<glyph unicode="W" horiz-adv-x="1722" d="M-10 1227l153 55l21 -57l305 -985l305 987l154 55l20 -57l326 -953l293 955l153 55l21 -59l-375 -1223l-154 -55l-20 57l-326 954l-309 -999l-154 -55l-20 57z" />
<glyph unicode="X" horiz-adv-x="1077" d="M63 1227l154 55l336 -522l301 469l154 55l20 -57l-387 -604l365 -570l20 -57l-154 -55l-335 522l-297 -463l-154 -55l-20 55l385 600l-367 569z" />
<glyph unicode="Y" horiz-adv-x="931" d="M-8 1231l153 55l332 -522l301 469l154 55l22 -57l-397 -617v-610l-154 -55l-20 57v586l-371 582z" />
<glyph unicode="Z" horiz-adv-x="1075" d="M63 2l750 1174h-729l-21 57l154 55h787l20 -57l-750 -1174l732 -2l20 -57l-154 -55l-788 2z" />
<glyph unicode="[" horiz-adv-x="448" d="M74 1499l153 55h222l20 -57l-154 -57h-67l2 -1895h201l20 -57l-154 -55h-221l-20 57z" />
<glyph unicode="\" horiz-adv-x="1073" d="M63 1229l154 55l787 -1229l20 -57l-154 -55l-786 1228z" />
<glyph unicode="]" horiz-adv-x="446" d="M-8 -512l153 57h68v1895h-201l-20 57l153 55h222l20 -57v-2009l-154 -55h-221z" />
<glyph unicode="^" horiz-adv-x="636" d="M74 969l164 94l153 55l166 -94l21 -57l-154 -56l-137 78l-39 -22l-154 -56z" />
<glyph unicode="_" horiz-adv-x="1171" d="M63 -156l154 56h885l20 -58l-153 -55h-885z" />
<glyph unicode="`" horiz-adv-x="546" d="M63 1225l154 55l96 -164l164 -96l21 -57l-154 -56l-164 97l-96 163z" />
<glyph unicode="a" horiz-adv-x="909" d="M63 260v189l95 165l164 95l153 55h189l67 -39l98 37l21 -57v-93v-518v-98l-154 -55l-20 57l-146 -53h-188l-164 94l-94 164zM238 279l73 -127l164 -95h133l68 39v473l-148 82h-131l-65 -39l-94 -166v-167z" />
<glyph unicode="b" horiz-adv-x="911" d="M74 2v92v518v635l153 56l21 -58v-536l145 53h189l163 -94l97 -166l20 -58v-188l-96 -164l-164 -94l-153 -55h-189l-67 39l-99 -37zM248 139l147 -80h131l66 39l96 164v166l-76 129l-163 94h-134l-67 -39v-473z" />
<glyph unicode="c" horiz-adv-x="911" d="M61 262v189l97 165l164 95l153 55h189l165 -94l21 -58l-154 -55l-166 94h-131l-65 -39l-96 -165v-166l75 -129l164 -95h133l68 39l153 56l19 -58l-166 -94l-154 -55h-188l-164 94l-96 164z" />
<glyph unicode="d" horiz-adv-x="911" d="M63 260v189l95 165l164 95l153 55h191l12 -6v475l153 55l21 -57v-1231l-154 -55l-18 53l-148 -53h-190l-164 94l-94 164zM240 279l73 -127l164 -95h133l66 39h2v471l-146 84h-133l-65 -39l-94 -166v-167z" />
<glyph unicode="e" horiz-adv-x="995" d="M59 262v189l95 165l165 95l154 55h189l163 -94l97 -166l20 -57v-93l-154 -55h-555l3 -20l73 -127l166 -95h131l66 39l153 56l21 -58l-164 -94l-154 -55h-188l-166 94l-94 164zM233 414l535 2v14l-76 129l-164 94h-133l-67 -39l-95 -165v-35z" />
<glyph unicode="f" horiz-adv-x="673" d="M74 2v709v258l94 166l164 94l153 55h191l20 -57l-155 -56h-133l-66 -38l-94 -166v-201h168l20 -57l-153 -56h-35v-653l-154 -55z" />
<glyph unicode="g" horiz-adv-x="909" d="M63 260v189l95 165l164 95l153 55h191l63 -37l100 37l21 -57v-95v-518v-246l-94 -163l-164 -95l-154 -55h-190l-164 94l-21 58l156 55l164 -94h133l66 39l94 163v146l-144 -51h-190l-164 94l-94 164zM242 276l73 -126l164 -95h133l66 39v473l-143 82h-134l-65 -39 l-94 -166v-168z" />
<glyph unicode="h" horiz-adv-x="921" d="M74 614l2 2v613l153 55l21 -57v-514l143 51h189l163 -94l97 -166l20 -58v-448l-153 -55l-21 59v426l-76 129l-163 94h-134l-65 -37v-616l-154 -55l-20 57v608z" />
<glyph unicode="i" d="M72 971l153 55l21 -57l-154 -56zM74 0v711l153 55l21 -57v-711l-154 -55z" />
<glyph unicode="j" horiz-adv-x="485" d="M-8 -408l164 95l96 163v859l154 55l20 -57v-859l-96 -163l-164 -95l-154 -55zM246 967l153 55l21 -57l-154 -56z" />
<glyph unicode="k" horiz-adv-x="739" d="M74 4v414v819l153 55l21 -57v-694l241 170l154 55l21 -57l-390 -277l467 -375l21 -57l-154 -55l-360 291v-234l-154 -55z" />
<glyph unicode="l" d="M74 0v1225l153 55l21 -57v-1225l-154 -55z" />
<glyph unicode="m" horiz-adv-x="1546" d="M74 2v711l153 55l19 -53v-51l90 51l153 55h189l143 -78l41 23l154 55h188l164 -94l96 -166l21 -57v-449l-154 -55l-20 57v426l-76 129l-164 94h-133l-68 -39v-614l-153 -55l-21 57v567l-151 82h-131l-66 -39l-96 -165l-4 -3v-446l-154 -55z" />
<glyph unicode="n" horiz-adv-x="921" d="M74 614l2 2v93l153 55l19 -53l145 53h189l163 -94l97 -166l20 -58v-448l-153 -55l-21 59v426l-76 129l-163 94h-134l-65 -37v-616l-154 -55l-20 57v608z" />
<glyph unicode="o" horiz-adv-x="995" d="M63 260v189l95 165l166 95l153 55h189l163 -94l97 -166l20 -58v-188l-96 -164l-164 -96l-154 -55h-188l-166 96l-94 164zM238 281l73 -127l166 -97h129l70 43l96 164v166l-76 129l-164 94h-133l-67 -39l-94 -165v-168z" />
<glyph unicode="p" horiz-adv-x="911" d="M74 100v518v84l153 56l17 -45l149 55h189l163 -94l97 -166l20 -57v-189l-96 -164l-164 -94l-153 -55h-189l-12 6v-483l-154 -56l-20 58v626zM246 141l147 -80h131l66 39l96 164v166l-76 129l-164 94h-133l-67 -39v-473z" />
<glyph unicode="q" horiz-adv-x="911" d="M63 262v189l95 165l164 95l153 55h191l75 -43l90 33l21 -58v-1228l-154 -56l-20 58v528l-146 -53h-190l-164 94l-94 164zM240 281l73 -127l164 -95h133l66 39h2v471l-146 84h-133l-65 -39l-94 -165v-168z" />
<glyph unicode="r" horiz-adv-x="579" d="M74 2v614v95l153 55l19 -53l145 53h191l20 -57l-156 -56h-133l-65 -39v-614l-154 -55z" />
<glyph unicode="s" horiz-adv-x="808" d="M43 98l154 56l163 -95h132l65 39v127l-451 156l-20 57v178l164 95l153 55h189l166 -94l20 -58l-153 -55l-166 94h-131l-66 -39v-127l451 -155l20 -58v-178l-164 -94l-153 -55h-189l-164 94z" />
<glyph unicode="t" horiz-adv-x="487" d="M74 260v766l153 55l21 -57v-246h172l20 -57l-153 -55h-39v-385l76 -129l165 -95l21 -57l-154 -55l-166 94l-96 164z" />
<glyph unicode="u" horiz-adv-x="921" d="M74 260v451l153 55l21 -57v-428l76 -129l163 -95h134l65 37v617l154 55l20 -57v-609l2 -6l-2 -2v-92l-153 -55l-19 53l-145 -53h-189l-164 94l-96 164z" />
<glyph unicode="v" horiz-adv-x="755" d="M-8 711l155 55l240 -559l217 504l154 55l20 -57l-307 -711l-154 -55l-305 710z" />
<glyph unicode="w" horiz-adv-x="1363" d="M-10 715l153 55l240 -559l215 502l154 55l239 -559l217 504l154 55l22 -57l-307 -711l-153 -55l-240 559l-215 -502l-154 -55l-305 710z" />
<glyph unicode="x" horiz-adv-x="907" d="M61 2l295 336l-274 313l-21 58l154 55l258 -293l209 238l154 55l20 -57l-295 -336l275 -314l20 -57l-154 -55l-258 293l-208 -238l-154 -55z" />
<glyph unicode="y" horiz-adv-x="794" d="M-8 -403l164 96l147 311l-280 653l-21 58l154 55l243 -567l244 512l154 55l20 -57l-338 -709l2 -4l-4 -2l-147 -311l-164 -97l-154 -55z" />
<glyph unicode="z" horiz-adv-x="907" d="M63 0l570 649h-549l-21 58l154 55h621l20 -57l-569 -650h549l20 -57l-153 -55h-621z" />
<glyph unicode="{" horiz-adv-x="716" d="M63 627l168 100l2 240l95 166l166 94l153 55l21 -55l-166 -94l-94 -166l-2 -240l-127 -76l106 -59l21 -57l2 -254l73 -127l166 -95l21 -57l-154 -55l-166 94l-94 164l-21 57l-2 227l-147 80z" />
<glyph unicode="|" d="M74 -174v1507l153 56l21 -58v-1507l-154 -55z" />
<glyph unicode="}" horiz-adv-x="716" d="M63 4l164 94l97 164v275l129 69l-109 64l-20 57v217l-76 129l-164 94l-21 58l154 59l164 -94l96 -166l21 -57v-195l149 -88l21 -57l-170 -92v-275l-97 -164l-163 -94l-154 -55z" />
<glyph unicode="~" horiz-adv-x="849" d="M74 711l153 55h189l164 -104h190l21 -58l-154 -55h-191l-163 104h-189z" />
<glyph unicode="&#xa8;" horiz-adv-x="919" d="M221 965l154 55l20 -57l-153 -56zM594 965l154 55l20 -57l-154 -56z" />
<glyph unicode="&#xab;" horiz-adv-x="923" d="M63 354l338 355l154 55l20 -57l-321 -336l299 -314l20 -57l-151 -55l-338 352zM365 354l337 355l154 55l21 -57l-322 -336l299 -314l20 -57l-151 -55l-338 352z" />
<glyph unicode="&#xad;" horiz-adv-x="681" d="M63 326l154 55h395l21 -57l-154 -56h-395z" />
<glyph unicode="&#xb4;" horiz-adv-x="546" d="M66 969l165 96l95 164l153 55l21 -57l-94 -164l-166 -96l-154 -56z" />
<glyph unicode="&#xbb;" horiz-adv-x="923" d="M63 0l322 334l-299 315l-20 58l153 55l338 -354l21 -58l-338 -352l-154 -55zM365 0l321 334l-299 315l-20 58l153 55l338 -354l21 -58l-338 -352l-154 -55z" />
<glyph unicode="&#xc0;" horiz-adv-x="1036" d="M-8 -2l446 1227l154 55l467 -1284l-154 -55l-174 477h-412l-153 -422l-154 -55zM352 1642l154 56l94 -164l164 -94l20 -58l-153 -55l-164 94l-94 164zM360 530h328l-164 453z" />
<glyph unicode="&#xc1;" horiz-adv-x="1036" d="M-8 0l446 1227l154 55l467 -1284l-154 -55l-174 477h-412l-153 -422l-154 -55zM274 1384l164 95l94 163l154 56l21 -58l-95 -163l-163 -95l-154 -55zM360 532h328l-164 453z" />
<glyph unicode="&#xc2;" horiz-adv-x="1036" d="M-10 -2l446 1227l154 55l467 -1284l-154 -55l-174 477h-412l-153 -422l-154 -55zM266 1544l164 96l154 56l164 -97l20 -57l-154 -55l-135 80l-39 -23l-153 -55zM358 530h328l-164 453z" />
<glyph unicode="&#xc3;" horiz-adv-x="1036" d="M-8 2l446 1227l154 55l467 -1284l-154 -55l-174 477h-412l-153 -422l-154 -55zM166 1642l153 56h191l162 -107h190l21 -57l-154 -55h-190l-162 106h-191zM360 535h328l-164 452z" />
<glyph unicode="&#xc4;" horiz-adv-x="1038" d="M-6 0l446 1227l154 55l274 -750l21 -57l174 -477l-154 -55l-174 477h-413l-154 -422l-154 -55zM242 1561l153 55l21 -57l-154 -56zM362 532h330l-166 453zM614 1561l154 55l20 -57l-153 -56z" />
<glyph unicode="&#xc6;" horiz-adv-x="1452" d="M-8 -2l446 1227l154 55h790l21 -57l-154 -56h-637v-497h527l20 -58l-153 -55h-394v-82v-420h770l21 -57l-154 -55h-790l-21 57v420h-119l-153 -422l-154 -55zM360 530h78v82v129z" />
<glyph unicode="&#xc7;" horiz-adv-x="1351" d="M63 453v329l164 287l287 164l154 55h329l285 -164l21 -57l-154 -55l-285 164h-274l-189 -109l-163 -287v-309l143 -248l287 -166h161h111l188 111l154 55l21 -57l-285 -166l-154 -55h-14v-133l-94 -164l-164 -94l-154 -56l-20 58l164 94l94 164v131h-141l-287 166 l-164 284z" />
<glyph unicode="&#xc8;" horiz-adv-x="1085" d="M74 2v616v609l153 55h789l20 -57l-153 -60h-635v-493h524l21 -58l-154 -55h-391v-502h768l20 -57l-153 -55h-789zM358 1645l154 55l94 -164l164 -94l21 -58l-154 -55l-164 94l-94 164z" />
<glyph unicode="&#xc9;" horiz-adv-x="1085" d="M74 4v617v608l153 55h789l20 -57l-153 -60h-635v-493h524l21 -58l-154 -55h-391v-502h768l20 -57l-153 -55h-789zM358 1389l164 94l94 164l154 55l21 -57l-95 -164l-164 -95l-153 -55z" />
<glyph unicode="&#xca;" horiz-adv-x="1085" d="M74 2v616v613l153 55h789l20 -57l-153 -60h-635v-497h524l21 -58l-154 -55h-391v-502h768l20 -57l-153 -55h-789zM285 1548l164 97l153 55l164 -96l20 -58l-153 -55l-135 80l-39 -23l-154 -55z" />
<glyph unicode="&#xcb;" horiz-adv-x="1085" d="M74 4v617v608l153 55h789l20 -57l-153 -60h-635v-493h524l21 -58l-154 -55h-391v-502h768l20 -57l-153 -55h-789zM246 1556l153 56l21 -58l-154 -55zM618 1556l154 56l21 -58l-154 -55z" />
<glyph unicode="&#xcc;" d="M-92 1384l164 95l94 163l153 56l21 -58l-94 -163l-164 -95l-154 -55zM74 0v1231l153 55l21 -57v-1231l-154 -55z" />
<glyph unicode="&#xcd;" d="M-14 1642l153 56l94 -164l164 -94l21 -58l-154 -55l-164 94l-94 164zM74 0v1231l153 55l21 -57v-1231l-154 -55z" />
<glyph unicode="&#xce;" d="M-92 1546l162 96l153 56l166 -96l21 -58l-154 -55l-135 78l-39 -23l-154 -55zM74 0v1231l153 55l21 -57v-1231l-154 -55z" />
<glyph unicode="&#xcf;" d="M-113 1556l154 56l20 -58l-153 -55zM74 -2v1231l153 55l21 -57v-1231l-154 -55zM260 1556l154 56l20 -58l-153 -55z" />
<glyph unicode="&#xd1;" horiz-adv-x="1093" d="M74 0v1229l153 55l633 -989v930l154 55l20 -57v-1227l-153 -55l-633 989v-932l-154 -55zM170 1638l154 56h188l164 -105h190l21 -57l-154 -55h-190l-164 104h-189z" />
<glyph unicode="&#xd2;" horiz-adv-x="1513" d="M63 449v329l164 285l285 164l154 55h329l285 -164l164 -284l20 -58v-330l-164 -284l-284 -164l-154 -55h-330l-284 163l-164 285zM238 469l143 -248l285 -164h272l186 109l164 285v309l-143 248l-285 163h-272l-187 -108l-163 -285v-309zM584 1647l153 55l94 -164 l164 -94l21 -58l-154 -55l-164 94l-94 164z" />
<glyph unicode="&#xd3;" horiz-adv-x="1513" d="M63 451v329l164 285l285 164l154 55h329l285 -164l164 -284l20 -58v-329l-164 -285l-284 -164l-154 -55h-330l-284 164l-164 284zM240 469l143 -248l285 -164h272l186 109l164 285v309l-143 248l-285 163h-272l-187 -108l-163 -285v-309zM508 1391l164 94l94 164l154 55 l20 -57l-94 -164l-164 -94l-154 -56z" />
<glyph unicode="&#xd4;" horiz-adv-x="1513" d="M63 446v330l164 285l285 164l154 55h329l285 -164l164 -285l20 -57v-330l-164 -284l-284 -164l-154 -55h-330l-284 163l-164 285zM240 465l143 -248l285 -164h272l186 109l164 284v310l-143 248l-285 163h-272l-187 -108l-163 -285v-309zM508 1550l164 97l153 55l166 -96 l21 -58l-154 -55l-137 80l-39 -23l-154 -55z" />
<glyph unicode="&#xd5;" horiz-adv-x="1513" d="M63 451v329l164 285l285 164l154 55h329l285 -164l164 -284l20 -58v-329l-164 -285l-284 -164l-154 -55h-330l-284 164l-164 284zM240 469l143 -248l285 -164h272l186 109l164 285v309l-143 248l-285 163h-272l-187 -108l-163 -285v-309zM416 1642l153 56h191l162 -107 h190l21 -57l-154 -55h-191l-161 106h-191z" />
<glyph unicode="&#xd6;" horiz-adv-x="1515" d="M63 451v329l164 285l285 164l154 55h329l285 -164l164 -284l20 -58v-329l-164 -285l-284 -164l-154 -55h-330l-284 164l-164 284zM240 469l143 -248l285 -164h272l186 109l164 285v309l-143 248l-285 163h-272l-187 -108l-163 -285v-309zM492 1556l153 56l21 -58 l-154 -55zM864 1556l154 56l20 -58l-153 -55z" />
<glyph unicode="&#xd8;" horiz-adv-x="1513" d="M63 0l156 158l-135 233l-21 58v329l164 285l285 164l154 55h329l217 -125l74 74l154 55l20 -57l-153 -156l137 -239l20 -58v-330l-164 -284l-284 -164l-154 -57h-330l-223 129l-71 -72l-154 -55zM238 465l106 -184l748 753l-232 133h-272l-187 -108l-163 -285v-309z M432 193l236 -136h272l186 107l164 285v309l-108 190z" />
<glyph unicode="&#xd9;" horiz-adv-x="1193" d="M61 168l13 4v1051l153 55l21 -57v-1010l264 -154h268l181 111v1059l153 55l21 -57v-1059l-273 -166l-153 -55h-330l-285 166l-2 4l-10 -4zM426 1647l154 55l94 -164l164 -94l20 -58l-153 -55l-164 94l-95 164z" />
<glyph unicode="&#xda;" horiz-adv-x="1193" d="M61 168l13 4v1051l153 55l21 -57v-1010l264 -154h268l181 111v1059l153 55l21 -57v-1059l-273 -166l-153 -55h-330l-285 166l-2 4l-10 -4zM358 1389l164 94l94 164l154 55l21 -57l-95 -164l-164 -95l-153 -55z" />
<glyph unicode="&#xdb;" horiz-adv-x="1193" d="M61 164l13 4v1051l153 55l21 -57v-1010l264 -154h268l181 111v1059l153 55l21 -57v-1059l-273 -166l-153 -55h-330l-285 165l-2 5l-10 -5zM354 1548l164 97l154 55l166 -96l20 -58l-153 -55l-138 80l-39 -23l-153 -55z" />
<glyph unicode="&#xdc;" horiz-adv-x="1193" d="M61 168l13 4v1051l153 55l21 -57v-1010l264 -154h268l181 111v1059l153 55l21 -57v-1059l-273 -166l-153 -55h-330l-285 166l-2 4l-10 -4zM334 1556l153 56l21 -58l-154 -55zM707 1556l153 56l21 -58l-154 -55z" />
<glyph unicode="&#xe0;" horiz-adv-x="909" d="M63 258v188l95 166l164 95l153 55h189l67 -39l98 37l21 -58v-92v-518v-98l-154 -55l-20 57l-146 -53h-188l-164 94l-94 164zM238 276l73 -126l164 -95h133l68 39v473l-148 82h-131l-65 -39l-94 -166v-168zM246 1225l153 55l97 -164l163 -96l21 -57l-154 -56l-164 97 l-96 163z" />
<glyph unicode="&#xe1;" horiz-adv-x="909" d="M66 260v189l94 165l164 95l153 55h189l67 -39l98 37l21 -57v-93v-518v-98l-154 -55l-20 57l-146 -53h-188l-164 94l-94 164zM240 279l73 -127l164 -95h133l68 39v473l-148 82h-131l-65 -39l-94 -166v-167zM326 965l166 96l94 164l153 55l21 -57l-94 -164l-166 -96 l-154 -56z" />
<glyph unicode="&#xe2;" horiz-adv-x="909" d="M63 258v188l95 166l164 95l153 55h189l67 -39l98 37l21 -58v-92v-518v-98l-154 -55l-20 57l-146 -53h-188l-164 94l-94 164zM238 276l73 -126l164 -95h133l68 39v473l-148 82h-131l-65 -39l-94 -166v-168zM254 963l164 96l153 55l164 -96l21 -57l-154 -56l-135 80 l-39 -22l-154 -56z" />
<glyph unicode="&#xe3;" horiz-adv-x="909" d="M63 262v189l95 165l164 95l153 55h189l67 -39l98 37l21 -57v-93v-518v-98l-154 -55l-20 57l-146 -53h-188l-164 94l-94 164zM109 1231l153 55h191l163 -104h189l20 -58l-153 -55h-189l-164 105h-190zM238 281l73 -127l164 -95h133l68 39v473l-148 82h-131l-65 -39 l-94 -165v-168z" />
<glyph unicode="&#xe4;" horiz-adv-x="909" d="M63 258v188l95 166l164 95l153 55h189l67 -39l98 37l21 -58v-92v-518v-98l-154 -55l-20 57l-146 -53h-188l-164 94l-94 164zM223 967l154 55l20 -57l-153 -56zM238 276l73 -126l164 -95h133l68 39v473l-148 82h-131l-65 -39l-94 -166v-168zM596 967l154 55l20 -57 l-154 -56z" />
<glyph unicode="&#xe7;" horiz-adv-x="901" d="M61 262v189l97 165l164 95l153 55h189l165 -94l21 -58l-154 -55l-166 94h-131l-65 -39l-96 -165v-166l75 -129l164 -95h133l68 39l153 56l19 -58l-166 -94l-94 -35v-162l-94 -163l-164 -95l-154 -55l-20 57l164 95l94 163v140h-74l-164 94l-96 164z" />
<glyph unicode="&#xe8;" horiz-adv-x="995" d="M61 260v189l95 165l166 95l153 55h189l163 -94l97 -166l20 -58v-92l-153 -55h-555l2 -20l73 -127l166 -95h131l66 39l153 56l21 -58l-164 -94l-154 -55h-188l-166 94l-94 164zM236 412l534 2v14l-76 129l-164 94h-133l-67 -39l-94 -166v-34zM246 1225l153 55l97 -164 l163 -96l21 -57l-154 -56l-164 97l-96 163z" />
<glyph unicode="&#xe9;" horiz-adv-x="995" d="M63 262v189l95 165l166 95l153 55h189l163 -94l97 -166l20 -57v-93l-153 -55h-555l2 -20l73 -127l166 -95h131l66 39l153 56l21 -58l-164 -94l-154 -55h-188l-166 94l-94 164zM238 414l534 2v14l-76 129l-164 94h-133l-67 -39l-94 -165v-35zM317 965l166 96l95 164 l153 55l21 -57l-95 -164l-165 -96l-154 -56z" />
<glyph unicode="&#xea;" horiz-adv-x="995" d="M59 258v188l95 166l165 95l154 55h189l163 -94l97 -166l20 -58v-92l-154 -55h-555l3 -21l73 -126l166 -95h131l66 39l153 56l21 -58l-164 -94l-154 -55h-188l-166 94l-94 164zM233 410l535 2v14l-76 129l-164 94h-133l-67 -39l-95 -166v-34zM262 963l164 96l154 55 l163 -96l21 -57l-154 -56l-135 80l-39 -22l-153 -56z" />
<glyph unicode="&#xeb;" horiz-adv-x="995" d="M59 260v189l95 165l165 95l154 55h189l163 -94l97 -166l20 -58v-92l-154 -55h-555l3 -20l73 -127l166 -95h131l66 39l153 56l21 -58l-164 -94l-154 -55h-188l-166 94l-94 164zM219 963l154 55l20 -57l-153 -56zM233 412l535 2v14l-76 129l-164 94h-133l-67 -39l-95 -166 v-34zM592 963l153 55l21 -57l-154 -56z" />
<glyph unicode="&#xec;" d="M-23 1225l154 55l96 -164l164 -96l21 -57l-154 -56l-164 97l-96 163zM74 0v711l153 55l21 -57v-711l-154 -55z" />
<glyph unicode="&#xed;" d="M-86 963l164 96l94 164l154 55l20 -57l-94 -164l-164 -96l-154 -56zM76 0v711l153 55l21 -57v-711l-154 -55z" />
<glyph unicode="&#xee;" d="M-90 963l164 96l153 55l164 -96l21 -57l-154 -56l-135 80l-39 -22l-154 -56zM74 -2v711l153 55l21 -57v-711l-154 -55z" />
<glyph unicode="&#xef;" d="M-113 965l154 55l20 -57l-153 -56zM74 -2v711l153 55l21 -57v-711l-154 -55zM260 965l154 55l20 -57l-153 -56z" />
<glyph unicode="&#xf1;" horiz-adv-x="921" d="M74 614l2 2v93l153 55l19 -53l145 53h189l163 -94l97 -166l20 -58v-448l-153 -55l-21 59v426l-76 129l-163 94h-134l-65 -37v-616l-154 -55l-20 57v608zM111 1231l153 55h191l163 -104h189l20 -58l-153 -55h-189l-163 105h-191z" />
<glyph unicode="&#xf2;" horiz-adv-x="995" d="M63 260v189l95 165l166 95l153 55h189l163 -94l97 -166l20 -58v-188l-96 -164l-164 -96l-154 -55h-188l-166 96l-94 164zM238 281l73 -127l166 -97h129l70 43l96 164v166l-76 129l-164 94h-133l-67 -39l-94 -165v-168zM246 1229l153 55l97 -164l163 -96l21 -57l-154 -56 l-164 97l-96 163z" />
<glyph unicode="&#xf3;" horiz-adv-x="995" d="M63 260v189l95 165l166 95l153 55h189l163 -94l97 -166l20 -58v-188l-96 -164l-164 -96l-154 -55h-188l-166 96l-94 164zM238 281l73 -127l166 -97h129l70 43l96 164v166l-76 129l-164 94h-133l-67 -39l-94 -165v-168zM322 969l165 96l95 164l153 55l21 -57l-94 -164 l-166 -96l-154 -56z" />
<glyph unicode="&#xf4;" horiz-adv-x="995" d="M61 258v188l95 166l166 95l153 55h189l163 -94l97 -166l20 -58v-188l-96 -164l-164 -96l-154 -55h-188l-166 96l-94 164zM236 279l73 -127l166 -97h129l70 43l96 164v166l-76 129l-164 94h-133l-67 -39l-94 -166v-167zM252 963l164 96l153 55l164 -96l21 -57l-154 -56 l-135 80l-39 -22l-154 -56z" />
<glyph unicode="&#xf5;" horiz-adv-x="995" d="M63 260v189l95 165l166 95l153 55h189l163 -94l97 -166l20 -58v-188l-96 -164l-164 -96l-154 -55h-188l-166 96l-94 164zM141 1233l154 55h190l164 -104h189l20 -58l-153 -55h-189l-164 105h-190zM238 281l73 -127l166 -97h129l70 43l96 164v166l-76 129l-164 94h-133 l-67 -39l-94 -165v-168z" />
<glyph unicode="&#xf6;" horiz-adv-x="995" d="M63 260v189l95 165l166 95l153 55h189l163 -94l97 -166l20 -58v-188l-96 -164l-164 -96l-154 -55h-188l-166 96l-94 164zM227 967l154 55l20 -57l-153 -56zM238 281l73 -127l166 -97h129l70 43l96 164v166l-76 129l-164 94h-133l-67 -39l-94 -165v-168zM600 967l154 55 l20 -57l-153 -56z" />
<glyph unicode="&#xf7;" horiz-adv-x="917" d="M72 365l153 55h611l20 -58l-154 -55h-610zM375 0l153 55l21 -57l-154 -55zM375 709l153 55l21 -57l-154 -56z" />
<glyph unicode="&#xf8;" horiz-adv-x="1013" d="M74 260v189l94 165l166 95l153 55h189l72 -41l108 39l21 -57l-35 -39l94 -162l20 -58v-188l-96 -164l-164 -96l-153 -55h-189l-98 57l-154 -55l-20 57l78 88l-66 113zM250 281l31 -54l335 383l-71 43h-133l-68 -39l-94 -165v-168zM369 127l118 -70h129l70 41l96 164v166 l-59 102z" />
<glyph unicode="&#xf9;" horiz-adv-x="921" d="M74 260v451l153 55l21 -57v-428l76 -129l163 -95h134l65 37v617l154 55l20 -57v-609l2 -6l-2 -2v-92l-153 -55l-19 53l-145 -53h-189l-164 94l-96 164zM262 1227l154 55l96 -164l164 -96l20 -57l-153 -56l-164 97l-96 163z" />
<glyph unicode="&#xfa;" horiz-adv-x="921" d="M74 260v451l153 55l21 -57v-428l76 -129l163 -95h134l65 37v617l154 55l20 -57v-609l2 -6l-2 -2v-92l-153 -55l-19 53l-145 -53h-189l-164 94l-96 164zM262 963l166 96l94 164l154 55l20 -57l-94 -164l-166 -96l-153 -56z" />
<glyph unicode="&#xfb;" horiz-adv-x="921" d="M74 260v451l153 55l21 -57v-428l76 -129l163 -95h134l65 37v617l154 55l20 -57v-609l2 -6l-2 -2v-92l-153 -55l-19 53l-145 -53h-189l-164 94l-96 164zM268 965l164 96l154 55l164 -96l20 -57l-154 -56l-135 80l-39 -22l-153 -56z" />
<glyph unicode="&#xfc;" horiz-adv-x="919" d="M74 260v451l153 55l21 -57v-428l76 -129l163 -95h134l65 37v617l154 55l20 -57v-609l2 -6l-2 -2v-92l-153 -55l-19 53l-145 -53h-189l-164 94l-96 164zM223 965l154 55l20 -57l-153 -56zM596 965l154 55l20 -57l-154 -56z" />
<glyph unicode="&#xff;" horiz-adv-x="794" d="M-8 -410l164 95l149 313l-280 655l-21 58l154 55l243 -567l244 514l154 55l20 -57l-336 -711v-2h-2l-149 -315l-164 -95l-154 -55zM143 965l154 55l20 -57l-153 -56zM516 965l154 55l20 -57l-153 -56z" />
<glyph unicode="&#x152;" horiz-adv-x="1857" d="M1878 -713h1h1l1 1h1h1l1 1h1h1v1h1h1l1 1h1h1l1 1h1h1l1 1h1h1v1h1h1h1v1h1h1l1 1h1h1l1 1h1h1v1h1h1l1 1h1h1l1 1h1h1v1h1h1h1v1h1h1l1 1h1h1v1h1h1h1l1 1h1h1v1h1h1h1v1h1h1l1 1h1h1l1 1h1h1v1h1h1l1 1h1h1v1h1h1h1v1h1h1h1v1h1h1l1 1h1h1v1h1h1h1v1h1h1h1v1h1h1l1 1 h1h1v1h1h1h1v1h1h1l1 1h1h1l1 1h1h1v1h1h1h1v1h1h1l1 1h1h1l1 1h1h1v1h1h1h1v1h1h1l1 1h1h1v1h1h1h1l1 1h1h1v1h1h1l1 1h1h1l1 1h1h1v1h1h1h1v1h1h1l1 1h1h1v1h1h1h1l1 1h1h1v1h1h1l1 1h1h1l1 1h1h1v1h1h1l1 1h1h1l1 1h1h1v1h1h1h1v1h1h1l1 1h1h1l1 1h1h1v1h1h1h1v1h1h1l1 1 h1h1l1 1h1h1l1 1h1h1v1h1h1h1v1h1h1v1h1h1h1v1h1h1h1v1h1h1l1 1h1h1l1 1h1h1v1h1h1h1v1h1h1l1 1h1h1l1 1h1h1v1h1h1h1v1h1h1l1 1h1h1v1h1h1h1v1h1h1h1v1h1h1l1 1h1h1l1 1h1h1l1 1h1l1 1h1h1l1 1h1h1v1h1h1h1v1h1h1h1v1h1h1l1 1h1h1l1 1h1h1v1h1h1h1v1h1h1l1 1h1h1l1 1h1h1v1 h1h1h1v1h1h1l1 1h1h1v1h1h1h1v1h1h1l1 1h1h1l1 1h1h1v1h1h1l1 1h1h1l1 1h1h1l1 1h1h1l1 1h1h1v1h1h1l1 1h1h1l1 1h1h1l1 1h1l1 1h1h1l1 1h1h1l1 1h1h1v1h1h1l1 1h1h1h1v1h1h1l1 1h1h1v1h1h1l1 1h1h1h1v1h1h1l1 1h1h1v1h1h1l1 1h1h1l1 1h1h1v1h1h1h1l1 1h1h1v1h1h1l1 1h1h1 l1 1h1l1 1h1h1l1 1h1h1l1 1h1h1l1 1h1h1v1h1h1l1 1h1h1l1 1h1h1l1 1h1h1v1h1h1l1 1h1h1l1 1h1h1v1h1h1l1 1h1h1l1 1h1h1v1h1h1h1v1h1h1l1 1h1h1l1 1h1h1v1h1h1l1 1h1h1l1 1h1h1l1 1h1h1v1h1h1h1v1h1h1l1 1h1h1l1 1h1h1l1 1h1h1v1h1h1l1 1h1h1l1 1h1h1l1 1h1h1l1 1h1h1v1h1h1 l1 1h1h1l1 1h1l1 1h1h1l1 1h1h1l1 1h1h1l1 1h1h1v1h1h1h1v1h1h1l1 1h1h1l1 1h1l1 1h1h1l1 1h1h1l1 1h1h1l1 1h1h1l1 1h1l1 1h1h1l1 1h1h1l1 1h1h1v1h1h1h1v1h1h1v1h1h1h1v1h1h1h1v1h1h1l1 1h1h1l1 1h1h1v1h1h1h1v1h1h1l1 1h1h1l1 1h1h1v1h1h1h1v1h1h1l1 1h1h1v1h1h1h1v1h1h1 h1v1h1h1h1v1h1h1l1 1h1h1l1 1h1h1v1h1h1l1 1h1h1l1 1h1h1l1 1h1l1 1h1h1l1 1h1h1l1 1h1l1 1h1h1l1 1h1h1l1 1h1h1v1h1h1h1v1h1h1h1l1 1h1l1 1h1h1l1 1h1l1 1h1h1l1 1h1h1l1 1h1h1v1h1h1h1l1 1h1l1 1h1h1l1 1h1h1l1 1h1l1 1h1h1h1v1h1h1l1 1h1h1l1 1h1l1 1h1h1l1 1h1h1l1 1h1 h1v1h1h1h1l1 1h1l1 1h1h1l1 1h1h1v1h1h1h1v1h1h1l1 1h1h1l1 1h1l1 1h1h1h1v1h1h1l1 1h1h1l1 1h1l1 1h1h1h1v1h1h1l1 1h1h1l1 1h1l1 1h1h1h1v1h1h1l1 1h1h1l1 1h1l1 1h1h1h1v1h1h1l1 1h1h1l1 1h1h1v1h1h1h1l1 1h1l1 1h1h1v1h1h1h1l1 1h1l1 1h1h1l1 1h1h1v1h1h1h1l1 1h1l1 1h1 h1l1 1h1h1l1 1h1l1 1h1h1h1v1h1h1l1 1h1h1l1 1h1h1v1h1h1l1 1h1h1l1 1h1h1l1 1h1l1 1h1h1l1 1h1h1l1 1h1h1l1 1h1h1v1h1h1l1 1h1h1l1 1h1h1l1 1h1l1 1h1h1l1 1h1h1l1 1h1h1l1 1h1h1v1h1h1l1 1h1h1l1 1h1h1l1 1h1l1 1h1h1h1v1h1h1l1 1h1h1v1h1h1l1 1h1h1l1 1h1h1l1 1h1l1 1h1 h1h1v1h1h1l1 1h1h1v1h1h1h1l1 1h1l1 1h1h1l1 1h1h1l1 1h1h1l1 1h1l1 1h1h1l1 1h1h1l1 1h1h1l1 1h1l1 1h1h1l1 1h1h1l1 1h1h1v1h1h1l1 1h1h1l1 1h1h1l1 1h1h1v1h1h1l1 1h1h1l1 1h1h1l1 1h1h1v1h1h1l1 1h1h1v1h1h1h1l1 1h1h1v1h1h1l1 1h1h1l1 1h1h1l1 1h1h1l1 1h1l1 1h1h1l1 1 h1l1 1h1h1h1l1 1h1l1 1h1h1l1 1h1h1v1h1h1l1 1h1h1h1v1h1h1l1 1h1h1l1 1h1l1 1h1h1l1 1h1h1l1 1h1h1l1 1h1l1 1h1h1l1 1h1h1l1 1h1l1 1h1h1h1l1 1h1l1 1h1h1l1 1h1h1v1h1h1l1 1h1h1l1 1h1h1l1 1h1h1l1 1h1l1 1h1h1l1 1h1h1l1 1h1l1 1h1h1l1 1h1h1l1 1h1h1l1 1h1h1l1 1h1l1 1 h1h1l1 1h1h1l1 1h1l1 1h1h1l1 1h1h1l1 1h1h1l1 1h1h1l1 1h1l1 1h1h1l1 1h1h1l1 1h1l1 1h1h1l1 1h1h1l1 1h1l1 1h1h1h1l1 1h1h1v1h1h1l1 1h1h1l1 1h1h1v1h1h1l1 1h1h1l1 1h1h1v1h1h1l1 1h1h1l1 1h1h1l1 1h1l1 1h1h1h1l1 1h1h1v1h1h1l1 1h1h1l1 1h1h1l1 1h1l1 1h1h1l1 1h1h1 l1 1h1l1 1h1h1l1 1h1h1l1 1h1h1v1h1h1l1 1h1h1l1 1h1h1l1 1h1l1 1h1h1l1 1h1h1l1 1h1h1v1h1h1l1 1h1h1l1 1h1h1l1 1h1l1 1h1h1l1 1h1h1l1 1h1h1l1 1h1h1l1 1h1h1l1 1h1h1l1 1h1h1v1h1h1l1 1h1h1l1 1h1h1l1 1h1l1 1h1h1l1 1h1h1l1 1h1h1l1 1h1l1 1h1l1 1h1h1l1 1h1h1l1 1h1h1 l1 1h1l1 1h1h1l1 1h1h1l1 1h1h1l1 1h1l1 1h1h1l1 1h1h1l1 1h1h1l1 1h1h1v1h1h1l1 1h1h1l1 1h1h1l1 1h1h1l1 1h1l1 1h1h1l1 1h1h1l1 1h1h1l1 1h1h1l1 1h1l1 1h1h1l1 1h1h1l1 1h1h1l1 1h1h1l1 1l1 1h1h1l1 1h1h1l1 1h1h1l1 1h1h1l1 1h1l1 1h1h1l1 1h1h1l1 1h1h1l1 1h1h1l1 1h1 h1l1 1h1l1 1h1h1l1 1h1h1l1 1h1l1 1h1h1l1 1h1h1l1 1h1l1 1h1h1l1 1h1h1l1 1h1h1l1 1h1h1l1 1h1h1l1 1h1l1 1h1h1l1 1h1l1 1h1h1l1 1h1h1l1 1h1h1l1 1h1h1v1h1h1l1 1h1h1l1 1h1h1l1 1h1h1l1 1h1l1 1h1h1l1 1h1h1l1 1h1l1 1h1h1l1 1h1h1l1 1h1h1l1 1h1h1l1 1h1l1 1h1h1l1 1h1 h1l1 1h1l1 1h1h1l1 1h1h1l1 1h1h1l1 1h1l1 1h1h1l1 1h1h1l1 1h1h1l1 1h1h1l1 1h1l1 1h1h1l1 1h1l1 1h1h1l1 1h1h1l1 1h1h1l1 1h1h1l1 1h1h1l1 1h1l1 1h1h1l1 1h1l1 1h1h1l1 1h1h1l1 1h1h1l1 1h1l1 1h1h1l1 1h1h1l1 1h1h1l1 1h1h1l1 1h1h1l1 1h1l1 1h1h1l1 1h1h1v1h1h1l1 1h1 h1l1 1h1h1l1 1h1l1 1h1h1l1 1h1h1l1 1h1h1l1 1h1h1l1 1h1l1 1h1h1l1 1h1h1l1 1h1h1l1 1h1h1l1 1h1l1 1h1h1l1 1h1h1l1 1h1l1 1h1h1l1 1h1l1 1h1h1l1 1h1h1l1 1h1h1l1 1h1h1l1 1h1l1 1h1h1l1 1h1h1l1 1h1h1l1 1h1l1 1h1h1l1 1h1h1l1 1h1h1l1 1h1h1l1 1h1l1 1h1h1l1 1h1h1l1 1 h1h1l1 1h1l1 1h1h1l1 1h1h1l1 1h1h1l1 1h1l1 1h1h1l1 1h1h1l1 1h1h1l1 1h1l1 1h1h1l1 1h1h1l1 1h1h1l1 1h1h1l1 1h1l1 1h1h1l1 1h1h1l1 1h1h1l1 1l2 -2h-1l-1 -1h-1h-1v-1h-1h-1l-1 -1h-1h-1l-1 -1h-1h-1l-1 -1h-1l-1 -1h-1h-1l-1 -1h-1h-1l-1 -1h-1h-1l-1 -1h-1h-1l-1 -1 h-1h-1l-1 -1h-1h-1v-1h-1h-1l-1 -1h-1h-1l-1 -1h-1h-1l-1 -1h-1h-1v-1h-1h-1l-1 -1h-1h-1l-1 -1h-1h-1l-1 -1h-1h-1v-1h-1h-1l-1 -1h-1h-1l-1 -1h-1h-1l-1 -1h-1h-1l-1 -1h-1v-1h-1h-1l-1 -1h-1h-1l-1 -1h-1h-1l-1 -1h-1h-1l-1 -1h-1h-1v-1h-1h-1l-1 -1h-1h-1l-1 -1h-1h-1 l-1 -1h-1h-1l-1 -1h-1h-1l-1 -1h-1l-1 -1h-1h-1l-1 -1h-1h-1l-1 -1h-1l-1 -1h-1h-1l-1 -1h-1h-1l-1 -1h-1h-1l-1 -1h-1l-1 -1h-1h-1l-1 -1h-1h-1l-1 -1h-1h-1l-1 -1h-1h-1l-1 -1h-1l-1 -1h-1h-1l-1 -1h-1h-1l-1 -1h-1l-1 -1h-1h-1l-1 -1h-1h-1l-1 -1h-1h-1l-1 -1h-1l-1 -1 h-1h-1l-1 -1h-1h-1l-1 -1h-1h-1l-1 -1h-1h-1l-1 -1h-1h-1l-1 -1h-1h-1v-1h-1l-1 -1h-1h-1l-1 -1h-1h-1l-1 -1h-1h-1l-1 -1h-1h-1l-1 -1h-1l-1 -1h-1h-1l-1 -1h-1h-1l-1 -1h-1h-1l-1 -1h-1h-1l-1 -1h-1h-1l-1 -1h-1l-1 -1h-1h-1l-1 -1h-1h-1l-1 -1h-1h-1l-1 -1h-1h-1l-1 -1 h-1l-1 -1h-1h-1l-1 -1h-1l-1 -1h-1h-1l-1 -1h-1l-1 -1h-1h-1l-1 -1h-1h-1l-1 -1h-1h-1l-1 -1h-1h-1l-1 -1h-1l-1 -1h-1h-1l-1 -1h-1h-1l-1 -1h-1h-1l-1 -1h-1l-1 -1h-1h-1l-1 -1h-1h-1l-1 -1h-1h-1l-1 -1h-1l-1 -1h-1h-1l-1 -1zM2863 438v330l164 285l285 164l327 118h330 v-2q2 2 4 2h180q-210 -77 -315 -114v2h-330l-18 -6l-285 -164l-164 -285v-330l164 -284l285 -164h330q-126 -45 -314 -113l-151 -2l-285 164l-164 285zM3054 471v309l163 285l177 100l153 56h250l20 -58l-2 -1106l-153 -55h-160l-285 164l-143 248zM3230 492l121 -211 l284 -164h6l2 991h-172l-77 -45l-164 -285v-286zM3504 -117q33 12 142.5 53t173.5 64v-2h788l18 6h-768l-20 57v494l154 55h370l19 6h-525l-20 58v491l154 56h614l18 6h-788q135 48 313 114h608l43 -114l-321 -121h-461v-377h502l43 -115l-328 -118h-217v-379h746l43 -115 l-328 -119h-789v2q-2 -2 -4 -2h-180zM4153 1337v2h1l1 1h1h1l1 1h1l1 1h1h1l1 1h1h1l1 1h1h1l1 1h1h1l1 1h1l1 1h1h1l1 1h1h1l1 1h1h1l1 1h1l1 1h1h1l1 1h1l1 1h1h1l1 1h1h1l1 1h1h1l1 1h1h1l1 1h1h1l1 1h1h1l1 1h1l1 1h1l1 1h1h1l1 1h1h1l1 1h1h1l1 1h1h1l1 1h1h1l1 1h1h1 l1 1h1l1 1h1h1l1 1h1l1 1h1h1l1 1h1h1l1 1h1h1l1 1h1h1l1 1h1l1 1h1h1l1 1h1h1l1 1h1h1l1 1h1h1l1 1h1l1 1h1h1l1 1h1h1l1 1h1h1l1 1h1h1l1 1h1l1 1h1h1l1 1h1l1 1h1h1l1 1h1h1l1 1h1l1 1h1h1l1 1h1h1l1 1h1h1l1 1h1l1 1h1h1l1 1h1h1l1 1h1h1l1 1h1l1 1h1h1l1 1h1h1l1 1h1h1 l1 1h1h1l1 1h1l1 1h1h1l1 1h1h1l1 1h1l1 1h1h1l1 1h1h1l1 1h1h1l1 1h1l1 1h1h1l1 1h1h1l1 1h1h1l1 1h1l1 1h2h1l1 1h1h1l1 1h1h1l1 1h1l1 1h1h1l1 1h1h1l1 1h1l1 1h1h1l1 1h1h1l1 1h1h1l1 1h1l1 1h1h1l1 1h1h1l1 1h1l1 1h1h1l1 1h1h1l1 1h1h1l1 1h1l1 1h1h1l1 1h1h1l1 1h1 l1 1h1h1l1 1h1h1l1 1h1h1l1 1h2l1 1h1h1l1 1h1h1l1 1h1l1 1h1h1l1 1h1h1l1 1h1l1 1h1h1l1 1h1h1l1 1h1h1l1 1h1l1 1h1h1l1 1h1h1l1 1h1l1 1h1h1l1 1h1h1l1 1h1l1 1h1h1l1 1h2h1l1 1h1h1l1 1h1l1 1h1h1l1 1h1h1l1 1h1l1 1h1h1l1 1h1h1l1 1h1l1 1h1h1l1 1h1h1l1 1h1h1l1 1h1 l1 1h1h1l1 1h1h1l1 1h1l1 1h1h1l1 1h1h1l1 1h2l1 1h1h1l1 1h1h1l1 1h1h1l1 1h1l1 1h1h1l1 1h1h1l1 1h1l1 1h1h1l1 1h1h1l1 1h1l1 1h1h1l1 1h1h1l1 1h1h1l1 1h1l1 1h1h1l1 1h1h1l1 1h1h1l1 1h1l1 1h1h1l1 1h1h1l1 1h1l1 1h1h1l1 1h1h1l1 1h1h1l1 1h1l1 1h1h1l1 1h1h2l1 1h1h1 l1 1h1l1 1h1h1l1 1h1h1l1 1h1h1l1 1h1l1 1h1h1l1 1h1l1 1q621 225 1 -1l-1 -1h-1h-1l-1 -1h-1h-1l-1 -1h-1l-1 -1h-1h-1l-1 -1h-1h-1l-1 -1h-1h-1l-1 -1h-1l-1 -1h-1h-1l-1 -1h-1h-1l-1 -1h-1h-1l-1 -1h-1l-1 -1h-1h-1h-1v-1h-1h-1l-1 -1h-1h-1l-1 -1h-1h-1v-1h-1h-1l-1 -1 h-1h-1l-1 -1h-1h-1v-1h-1h-1h-1l-1 -1h-1l-1 -1h-1h-1l-1 -1h-1h-1l-1 -1h-1l-1 -1h-1h-1l-1 -1h-1h-1l-1 -1h-1h-1v-1h-1h-1l-1 -1h-1h-1l-1 -1h-1h-1l-1 -1h-1l-1 -1h-1h-1h-1v-1h-1h-1l-1 -1h-1h-1v-1h-1h-1h-1l-1 -1h-1l-1 -1h-1h-1l-1 -1h-1l-1 -1h-1h-1h-1l-1 -1h-1 l-1 -1h-1h-1l-1 -1h-1l-1 -1h-1h-1h-1l-1 -1h-1l-1 -1h-1h-1l-1 -1h-1l-1 -1h-1h-1h-1l-1 -1h-1l-1 -1h-1h-1l-1 -1h-1h-1v-1h-1h-1l-1 -1h-1h-1h-1v-1h-1h-1l-1 -1h-1h-1l-1 -1h-1l-1 -1h-1h-1l-1 -1h-1h-1v-1h-1h-1h-1l-1 -1h-1h-1v-1h-1h-1l-1 -1h-1h-1l-1 -1h-1l-1 -1 h-1h-1l-1 -1h-1h-1l-1 -1h-1h-1l-1 -1h-1h-1l-1 -1h-1l-1 -1h-1h-1l-1 -1h-1h-1l-1 -1h-1l-1 -1h-1h-1l-1 -1h-1h-1l-1 -1h-1l-1 -1h-1h-1l-1 -1h-1h-1h-1l-1 -1h-1l-1 -1h-1h-1l-1 -1h-1h-1l-1 -1h-1l-1 -1h-1h-1l-1 -1h-1h-1l-1 -1h-1l-1 -1h-1h-1l-1 -1h-1h-1l-1 -1h-1 h-1v-1h-1h-1l-1 -1h-1h-1l-1 -1h-1h-1l-1 -1h-1l-1 -1h-1h-1l-1 -1h-1h-1l-1 -1h-1h-1l-1 -1h-1l-1 -1h-1h-1l-1 -1h-1h-1l-1 -1h-1h-1l-1 -1h-1l-1 -1h-1h-1l-1 -1h-1h-1l-1 -1h-1h-1l-1 -1h-1l-1 -1h-1h-1l-1 -1h-1h-1l-1 -1h-1h-1l-1 -1h-1h-1l-1 -1h-1l-1 -1h-1h-1 l-1 -1h-1h-1l-1 -1h-1h-1l-1 -1h-1h-1l-1 -1l-1 -1h-1h-1l-1 -1h-1h-1l-1 -1h-1h-1l-1 -1h-1h-1l-1 -1h-1h-1v-1h-1h-1l-1 -1h-1h-1l-1 -1h-1h-1l-1 -1h-1h-1l-1 -1h-1h-1l-1 -1h-1l-1 -1h-1l-1 -1h-1h-1l-1 -1h-1h-1l-1 -1h-1h-1l-1 -1h-1h-1l-1 -1h-1h-1l-1 -1h-1h-1 l-1 -1h-1v-1h-1h-1l-1 -1h-1h-1l-1 -1h-1h-1l-1 -1h-1h-1l-1 -1h-1h-1l-1 -1h-1h-1l-1 -1h-1l-1 -1h-1h-1l-1 -1h-1h-1v-1h-1h-1l-1 -1h-1h-1l-1 -1h-1h-1l-1 -1h-1l-1 -1h-1h-1l-1 -1h-1h-1l-1 -1h-1h-1l-1 -1h-1h-1l-1 -1h-1h-1l-1 -1h-1l-1 -1h-1h-1l-1 -1h-1h-1l-1 -1 h-1h-1l-1 -1h-1l-1 -1h-1l-1 -1h-1h-1l-1 -1h-1h-1l-1 -1h-1h-1l-1 -1h-1l-1 -1h-1h-1l-1 -1h-1h-1l-1 -1h-1h-1l-1 -1h-1h-1l-1 -1h-1l-1 -1h-1h-1l-1 -1h-1h-1l-1 -1h-1h-1l-1 -1h-1l-1 -1h-1h-1l-1 -1h-1h-1l-1 -1h-1h-1l-1 -1h-1l-1 -1h-1h-1l-1 -1h-1z" />
<glyph unicode="&#x153;" horiz-adv-x="1513" d="M59 262v189l95 165l163 95l328 118h191l127 -73l202 73h189l164 -94l96 -166l43 -114l-2 -93l-328 -118h-342l14 -27l166 -94h95l258 94l43 -115l-164 -94l-328 -119h-188l-127 72l-203 -74h-191l-163 97l-95 163zM236 260l94 -162l164 -96h190l18 6l25 15l154 55 l133 -76h188l19 6l163 94l-18 -6l-53 -30l-154 -56h-125l-166 94l-73 127l-21 58v12l154 55h532l19 6l2 93l-97 166l-163 94h-189l-18 -6l-25 -15l-153 -55l-134 76h-190l-18 -6l-164 -95l-94 -165v-189zM254 289v168l94 166l53 30l154 56h127l123 -72l20 -57l-73 -131v-189 l65 -110l21 -58l-47 -29l-154 -55h-125l-164 96l-74 127zM428 307l51 -90l148 -88l-11 16l-43 115v189l56 96l-80 49h-41l-80 -141v-146zM772 422v35l94 166l56 30l153 56h127l164 -95l76 -129l20 -57v-8l-153 -55h-514zM961 479h286l-14 23l-164 94h-41z" />
<glyph unicode="&#x178;" horiz-adv-x="931" d="M-8 1229l327 119l267 -420l194 301l328 119l43 -113l-397 -617v-610l-328 -119l-43 115v561l-348 549zM170 1229l371 -582l20 -57v-586l19 6v611l397 616l-19 -6l-290 -451l-154 -55l-326 510zM207 1563l328 118l43 -114l-328 -119zM580 1563l327 118l43 -114l-327 -119z " />
<glyph unicode="&#x2000;" horiz-adv-x="852" />
<glyph unicode="&#x2001;" horiz-adv-x="1704" />
<glyph unicode="&#x2002;" horiz-adv-x="852" />
<glyph unicode="&#x2003;" horiz-adv-x="1704" />
<glyph unicode="&#x2004;" horiz-adv-x="568" />
<glyph unicode="&#x2005;" horiz-adv-x="426" />
<glyph unicode="&#x2006;" horiz-adv-x="284" />
<glyph unicode="&#x2007;" horiz-adv-x="284" />
<glyph unicode="&#x2008;" horiz-adv-x="213" />
<glyph unicode="&#x2009;" horiz-adv-x="340" />
<glyph unicode="&#x200a;" horiz-adv-x="94" />
<glyph unicode="&#x2010;" horiz-adv-x="681" d="M63 326l154 55h395l21 -57l-154 -56h-395z" />
<glyph unicode="&#x2011;" horiz-adv-x="681" d="M63 326l154 55h395l21 -57l-154 -56h-395z" />
<glyph unicode="&#x2012;" horiz-adv-x="681" d="M63 326l154 55h395l21 -57l-154 -56h-395z" />
<glyph unicode="&#x2013;" horiz-adv-x="743" d="M63 322l328 118h457l43 -114l-328 -119h-457zM240 322h456l19 6h-457z" />
<glyph unicode="&#x2014;" horiz-adv-x="999" d="M63 322l328 118h713l43 -114l-328 -119h-713zM240 322h712l19 6h-713z" />
<glyph unicode="&#x2018;" horiz-adv-x="380" d="M63 1225l328 118l94 -163l43 -115l-327 -119l-95 164zM240 1223l94 -164l18 6l-94 164z" />
<glyph unicode="&#x2019;" horiz-adv-x="380" d="M63 1061l95 164l327 118l43 -114l-94 -164l-328 -119zM242 1061l18 6l94 164l-18 -6z" />
<glyph unicode="&#x201c;" horiz-adv-x="679" d="M63 1223l328 118l51 -90l248 90l94 -163l43 -115l-327 -119l-51 90l-248 -90l-95 164zM240 1223l94 -164l18 6l-94 164zM539 1223l94 -164l18 6l-94 164z" />
<glyph unicode="&#x201d;" horiz-adv-x="679" d="M63 1061l95 164l327 118l35 -96l264 96l43 -114l-94 -164l-327 -119l-35 96l-265 -96zM242 1061l18 6l94 164l-18 -6zM541 1061l18 6l94 164l-18 -6z" />
<glyph unicode="&#x201e;" horiz-adv-x="679" d="M63 -166l95 164l327 119l35 -97l264 97l43 -115l-94 -164l-327 -119l-35 97l-265 -97zM242 -166l18 6l94 164l-18 -6zM541 -166l18 6l94 164l-18 -6z" />
<glyph unicode="&#x2026;" horiz-adv-x="1003" d="M53 -2l328 119l43 -115l-328 -119zM416 -2l327 119l43 -115l-327 -119zM776 -2l328 119l43 -115l-328 -119z" />
<glyph unicode="&#x202f;" horiz-adv-x="340" />
<glyph unicode="&#x2039;" horiz-adv-x="624" d="M63 348l338 354l328 119l43 -114l-303 -318l262 -272l43 -115l-330 -121l-338 352zM240 348l335 -352l19 6l-299 313l-21 58l322 336l-18 -7z" />
<glyph unicode="&#x203a;" horiz-adv-x="624" d="M63 705l328 118l338 -354l43 -115l-338 -352l-328 -119l-40 115l303 317l-263 275zM240 -4l20 4l338 352l-338 355l-18 -7l299 -313l20 -57z" />
<glyph unicode="&#x205f;" horiz-adv-x="426" />
<glyph unicode="&#x20ac;" horiz-adv-x="1673" d="M63 449l320 116v97h-274l-43 114l327 119h60l96 168l285 164l327 119h330l287 -164l43 -115l-330 -123l-287 164h-209l-77 -45l-99 -170h379l43 -115l-328 -119h-159v-94l442 2l43 -114l-328 -119h-65l31 -53l284 -164h211l78 45l328 119l43 -115l-287 -164l-328 -119 h-329l-285 164l-166 285l-2 2h-318zM240 453h317l2 -2l166 -285l285 -164h329l19 6l287 164l-19 -6l-176 -100l-154 -56h-266l-285 164l-98 168l-20 57l153 56h264l19 6l-465 -2l-20 57v207l153 55h313l19 6l-432 -2l-21 58l131 227l177 100l153 56h266l287 -164l18 6 l-288 168h-330l-18 -6l-285 -164l-129 -223l-154 -56h-180l-18 -6h297l20 -57v-207l-154 -55h-145z" />
<glyph unicode="&#x25fc;" horiz-adv-x="768" d="M0 0v768h768v-768h-768z" />
<glyph unicode="&#xfb01;" horiz-adv-x="755" d="M74 -2v967l94 165l164 95l327 118h191l43 -114l-326 -119h-41l-80 -141v-144h402l43 -114v-709l-328 -119l-43 115v594h-76v-590l-327 -119zM254 0l18 6v645l154 56h250l20 -58v-651l19 6v709l-420 4l-21 57v201l95 166l53 30l153 56h127l19 6h-191l-18 -6l-164 -94 l-94 -166v-967z" />
<glyph unicode="&#xfb02;" horiz-adv-x="755" d="M72 -2v967l94 165l164 95l327 118h189l43 -114v-1225l-328 -119l-43 115v670l-76 -27v-641l-327 -119zM254 2l18 6v645l154 56h14l19 6h-168l-21 57v201l95 166l53 30l153 56h105l20 -58v-1167l19 6v1225l-185 4l-18 -6l-164 -94l-94 -166v-967zM440 825h78v279l-78 -135 v-144z" />
<glyph unicode="&#xfb03;" horiz-adv-x="1204" d="M74 4v967l94 166l164 94l327 119h191l31 -82l231 82h191l43 -115l-328 -119h-41l-80 -141v-144h406l43 -114v-709l-328 -119l-43 115v594h-80v-590l-328 -119l-43 115v594h-80v-590l-327 -119zM252 4l18 6v645l154 56h254l20 -58v-651l19 6v645l153 56h254l21 -58v-651 l18 6v709h-428l-20 57v201l94 166l53 30l154 56h127l18 6h-190l-19 -6l-164 -95l-94 -165v-195l-153 -55h-254l-21 57v201l94 166l54 30l153 56h127l19 6l-185 6l-18 -6l-164 -94l-94 -166v-967zM444 831h80v140l92 164l-51 -19h-41l-80 -141v-144z" />
<glyph unicode="&#xfb04;" horiz-adv-x="1204" d="M72 4v967l94 166l164 94l327 119h191l31 -82l231 84h190l43 -115v-1227l-327 -119l-43 115v672l-80 -29v-641l-328 -119l-43 115v594h-80v-590l-327 -119zM248 4l18 6v645l154 56h254l20 -58v-651l19 6v645l153 56h15l18 6h-168l-20 57v201l94 166l53 30l154 56h106 l21 -58v-1169l18 6v1227l-184 6l-19 -6l-163 -94l-95 -166v-195l-153 -55h-254l-21 57v201l94 166l54 31l153 55h127l19 6h-191l-18 -6l-164 -94l-94 -166v-967zM436 825h80v140l92 163l-51 -18h-41l-80 -141v-144zM885 825h80v283l-80 -139v-144z" />
</font>
</defs>
</svg>
